<svg width="40" height="40" viewBox="0 0 40 40" fill="none" xmlns="http://www.w3.org/2000/svg">
<path d="M1.1547 22C0.440169 20.7624 0.440169 19.2376 1.1547 18L8.8453 4.67949C9.55983 3.44188 10.8803 2.67949 12.3094 2.67949H27.6906C29.1197 2.67949 30.4402 3.44188 31.1547 4.67949L38.8453 18C39.5598 19.2376 39.5598 20.7624 38.8453 22L31.1547 35.3205C30.4402 36.5581 29.1197 37.3205 27.6906 37.3205H12.3094C10.8803 37.3205 9.55983 36.5581 8.8453 35.3205L1.1547 22Z" fill="#5281EE"/>
<path d="M25.273 20.623C23.9806 20.623 22.9297 21.674 22.9297 22.9663C22.9297 24.2587 23.9806 25.3096 25.273 25.3096C26.5653 25.3096 27.6553 24.2587 27.6553 22.9663C27.6553 21.674 26.5653 20.623 25.273 20.623Z" fill="white"/>
<path d="M28.2421 10H22.3449C21.3758 10 20.5874 10.8274 20.5874 11.7965V14.1789C20.5874 14.9426 21.0771 15.5942 21.759 15.8362V17.6938C21.759 17.9306 21.9015 18.1446 22.1206 18.235C22.3367 18.3251 22.5899 18.277 22.7591 18.108L24.9307 15.9363H28.2421C29.2112 15.9363 29.9996 15.148 29.9996 14.1789V11.7965C29.9996 10.8274 29.2112 10 28.2421 10Z" fill="white"/>
<path d="M19.4751 29.1352C19.5528 28.6104 19.7212 28.1206 19.9289 27.6523H10V29.4098C10 29.7336 10.262 29.9956 10.5858 29.9956H19.5688C19.4706 29.7228 19.4318 29.4295 19.4751 29.1352Z" fill="white"/>
<path d="M21.7555 24.1387H11.7575C10.7884 24.1387 10 24.927 10 25.8961V26.482H20.612C20.983 25.994 21.429 25.5744 21.9295 25.2229C21.8183 24.8809 21.7555 24.5173 21.7555 24.1387Z" fill="white"/>
<path d="M29.9463 29.307C29.7174 27.7597 28.6813 26.4722 27.3262 25.8047C26.7468 26.2254 26.0404 26.481 25.2712 26.481C24.5019 26.481 23.7955 26.2254 23.2161 25.8047C21.8611 26.4723 20.864 27.7598 20.6351 29.307C20.5818 29.6671 20.854 29.9959 21.218 29.9959H29.3634C29.7274 29.9959 29.9996 29.6671 29.9463 29.307Z" fill="white"/>
<path d="M16.4854 13.5918C15.193 13.5918 14.1421 14.6427 14.1421 15.9351C14.1421 17.2274 15.193 18.2784 16.4854 18.2784C17.7777 18.2784 18.8287 17.2274 18.8287 15.9351C18.8287 14.6427 17.7777 13.5918 16.4854 13.5918Z" fill="white"/>
<path d="M21.1211 22.2777C20.8922 20.7304 19.8951 19.443 18.5401 18.7754C17.9607 19.1961 17.2543 19.4517 16.485 19.4517C15.7158 19.4517 15.0094 19.1961 14.43 18.7754C13.0749 19.443 12.0388 20.7305 11.8099 22.2777C11.7566 22.6378 12.0288 22.9666 12.3928 22.9666H20.5382C20.9022 22.9666 21.1744 22.6378 21.1211 22.2777Z" fill="white"/>
</svg>
